<svg width="25" height="25" viewBox="0 0 25 25" fill="none" xmlns="http://www.w3.org/2000/svg">
<rect x="0.5" y="24.0987" width="24" height="24" rx="12" transform="rotate(-90 0.5 24.0987)" fill="#F7F7F7"/>
<path d="M13.5 12.0987C13.5 11.5464 13.0523 11.0987 12.5 11.0987C11.9477 11.0987 11.5 11.5464 11.5 12.0987C11.5 12.651 11.9477 13.0987 12.5 13.0987C13.0523 13.0987 13.5 12.651 13.5 12.0987Z" stroke="#2E2E2E" stroke-width="2" stroke-linecap="round" stroke-linejoin="round"/>
<path d="M6.5 12.0987C6.5 11.5464 6.05228 11.0987 5.5 11.0987C4.94772 11.0987 4.5 11.5464 4.5 12.0987C4.5 12.651 4.94772 13.0987 5.5 13.0987C6.05228 13.0987 6.5 12.651 6.5 12.0987Z" stroke="#2E2E2E" stroke-width="2" stroke-linecap="round" stroke-linejoin="round"/>
<path d="M20.5 12.0987C20.5 11.5464 20.0523 11.0987 19.5 11.0987C18.9477 11.0987 18.5 11.5464 18.5 12.0987C18.5 12.651 18.9477 13.0987 19.5 13.0987C20.0523 13.0987 20.5 12.651 20.5 12.0987Z" stroke="#2E2E2E" stroke-width="2" stroke-linecap="round" stroke-linejoin="round"/>
</svg>
