<svg width="34" height="26" viewBox="0 0 34 26" fill="none" xmlns="http://www.w3.org/2000/svg">
<path d="M31.9122 9.73845H31.3907V8.32035C31.3907 6.68515 30.0603 5.35481 28.4251 5.35481H27.6854C27.3715 4.18952 26.306 3.32922 25.0429 3.32922C23.5339 3.32922 22.3063 4.55681 22.3063 6.06585V10.5946H11.6937V6.06585C11.6937 4.55681 10.466 3.32922 8.95707 3.32922C7.69403 3.32922 6.62861 4.18952 6.3147 5.35481H5.57494C3.93968 5.35481 2.6093 6.68515 2.6093 8.32035V9.73845H2.08781C0.936594 9.73845 0 10.6752 0 11.8264V14.191C0 15.3422 0.936594 16.2788 2.08781 16.2788H2.60937V17.7044C2.60937 19.3397 3.93975 20.67 5.575 20.67H6.31477C6.62867 21.8353 7.69409 22.6956 8.95714 22.6956C10.4662 22.6956 11.6937 21.468 11.6937 19.959V15.4303H20.7913C21.0665 15.4303 21.2894 15.2074 21.2894 14.9322C21.2894 14.6571 21.0665 14.4342 20.7913 14.4342H11.6937V11.5906H22.3063V19.9591C22.3063 21.4681 23.5339 22.6957 25.0429 22.6957C26.306 22.6957 27.3715 21.8354 27.6854 20.6701H28.4251C30.0603 20.6701 31.3907 19.3398 31.3907 17.7045V16.2788H31.9122C33.0634 16.2788 34 15.3423 34 14.1911V11.8264C34 10.6751 33.0634 9.73845 31.9122 9.73845ZM2.60937 15.2828H2.08781C1.48584 15.2828 0.996094 14.793 0.996094 14.1911V11.8264C0.996094 11.2244 1.48584 10.7347 2.08781 10.7347H2.60937V15.2828ZM10.6976 19.9591C10.6976 20.9188 9.91678 21.6996 8.95707 21.6996C7.9973 21.6996 7.21657 20.9188 7.21657 19.9591V9.91015C7.21657 9.63505 6.99357 9.41215 6.71852 9.41215C6.44346 9.41215 6.22047 9.63505 6.22047 9.91015V19.674H5.575C4.489 19.674 3.60546 18.7905 3.60546 17.7046V8.32035C3.60546 7.23435 4.489 6.35085 5.575 6.35085H6.22047V7.70365C6.22047 7.97875 6.44346 8.20175 6.71852 8.20175C6.99357 8.20175 7.21657 7.97875 7.21657 7.70365V6.06575C7.21657 5.10606 7.99737 4.32525 8.95707 4.32525C9.91684 4.32525 10.6976 5.10606 10.6976 6.06575V19.9591ZM26.7835 19.9591C26.7835 20.9188 26.0027 21.6996 25.0429 21.6996C24.0832 21.6996 23.3024 20.9188 23.3024 19.9591V6.06575C23.3024 5.10606 24.0832 4.32525 25.0429 4.32525C26.0027 4.32525 26.7835 5.10606 26.7835 6.06575V19.9591ZM30.3946 17.7045C30.3946 18.7904 29.5111 19.674 28.4251 19.674H27.7796V6.35085H28.4251C29.5111 6.35085 30.3946 7.23435 30.3946 8.32035V17.7045ZM33.0039 14.1911C33.0039 14.793 32.5142 15.2827 31.9122 15.2827H31.3907V10.7346H31.9122C32.5142 10.7346 33.0039 11.2244 33.0039 11.8264V14.1911Z" fill="#070093"/>
</svg>
