<svg width="24" height="25" viewBox="0 0 24 25" fill="none" xmlns="http://www.w3.org/2000/svg">
<path d="M11 4.09869H4C3.46957 4.09869 2.96086 4.30941 2.58579 4.68448C2.21071 5.05955 2 5.56826 2 6.09869V20.0987C2 20.6291 2.21071 21.1378 2.58579 21.5129C2.96086 21.888 3.46957 22.0987 4 22.0987H18C18.5304 22.0987 19.0391 21.888 19.4142 21.5129C19.7893 21.1378 20 20.6291 20 20.0987V13.0987" stroke="#070093" stroke-width="1.5" stroke-linecap="round" stroke-linejoin="round"/>
<path d="M18.5 2.59868C18.8978 2.20085 19.4374 1.97736 20 1.97736C20.5626 1.97736 21.1022 2.20085 21.5 2.59868C21.8978 2.9965 22.1213 3.53607 22.1213 4.09868C22.1213 4.66129 21.8978 5.20085 21.5 5.59868L12 15.0987L8 16.0987L9 12.0987L18.5 2.59868Z" stroke="#070093" stroke-width="1.5" stroke-linecap="round" stroke-linejoin="round"/>
</svg>
