<svg width="58" height="56" viewBox="0 0 58 56" fill="none" xmlns="http://www.w3.org/2000/svg">
<g clip-path="url(#clip0_5_1562)">
<path d="M0 46.3278V47.5129H0.333994V50.7105H0V51.8956H1.99776V50.7105H1.66377V49.7019H3.27935L3.89199 49.0895V46.9435L3.27935 46.3312L0 46.3278ZM2.56269 48.3484L2.35561 48.5154H1.66329V47.5053H2.35466L2.56174 47.6722L2.56269 48.3484ZM5.13302 46.3278L4.52801 46.9325V51.2833L5.13302 51.888H7.47098L8.08553 51.2756V46.933L7.47241 46.3202L5.13302 46.3278ZM6.75528 50.5355L6.54868 50.7024H6.0558L5.8492 50.5355V47.6741L6.0558 47.5072H6.54963L6.75623 47.6741L6.75528 50.5355ZM13.7028 46.3278H15.6763V47.5129H15.1839L14.5311 50.7105H14.8651V51.8956H12.5019L12.1917 50.3767L11.8811 51.8956H9.51789V50.7105H9.85188L9.19964 47.5129H8.7058V46.3278H10.7045V47.5129H10.5375L11.0385 50.3767L11.54 47.5129H11.206V46.3278H13.2033V47.5129H12.8693L13.3708 50.3767L13.8722 47.5129H13.7052L13.7028 46.3278ZM16.3447 46.3278H20.2362V48.1095L18.9074 48.1014V47.5053H18.009V48.5154H18.9084V49.7019H18.009V50.712H18.9084V50.1154H20.2372V51.8956H16.3457V50.7105H16.6797V47.5129H16.3457L16.3447 46.3278ZM24.8606 49.4157L24.5581 49.1139L24.8606 48.8115V46.9421L24.248 46.3297H20.8737V47.5148H21.2077V50.7124H20.8737V51.8956H22.5375V49.7019H23.3333L23.5399 49.8688V51.8956H25.2032V50.7105H24.8692L24.8606 49.4157ZM23.5394 48.3484L23.3328 48.5154H22.5375V47.5053H23.3333L23.5399 47.6722L23.5394 48.3484ZM28.2903 46.3278L32.1818 46.3121V48.0938H30.853V47.4972H29.9536V48.5096H30.853V49.6947H29.9536V50.7034H30.2876V51.8889H28.2903V50.7034H28.6243V47.5129H28.2903V46.3278ZM32.8264 46.3278H34.8242V47.5129H34.4902V50.7105H34.8242V51.8956H32.8264V50.7105H33.1604V47.5129H32.8264V46.3278ZM35.4607 46.3278H39.7816V48.1095H38.6198V47.5129H38.2858V50.7105H38.6198V51.8956H36.6225V50.7105H36.9565V47.5129H36.6225V48.1095H35.4607V46.3278ZM43.0762 46.3278H44.7395V47.5129H44.4055V50.7105H44.7395V51.8956H43.0762L42.0814 49.5111V51.8956H40.4186V50.7105H40.7526V47.5129H40.4186V46.3278H42.0098L43.0762 48.873V46.3278ZM45.3841 46.3278H49.2756V48.1095L47.9468 48.1014V47.5053H47.0474V48.5154H47.9468V49.7019H47.0474V50.712H47.9468V50.1154H49.2756V51.8956H45.3841V50.7105H45.7181V47.5129H45.3841V46.3278ZM52.8565 46.3278L53.4692 46.9402V48.1095H52.1403V47.6803L51.9333 47.5134H51.4399L51.2333 47.6803V48.3566L51.4399 48.5235H52.8565L53.4615 49.1282V51.2919L52.8565 51.8956H50.5186L49.9054 51.2833V50.1139H51.2347V50.5431L51.4413 50.71H51.9347L52.1418 50.5431V49.8669L51.9347 49.7H50.5186L49.9136 49.0953V46.9321L50.5186 46.3274L52.8565 46.3278ZM56.3396 48.1095V47.6803L56.133 47.5134H55.6397L55.4326 47.6803V48.3566L55.6397 48.5235H57.0563L57.6608 49.1282V51.2919L57.0587 51.8956H54.7207L54.1081 51.2833V50.1139H55.4369V50.5431L55.6439 50.71H56.1373L56.3439 50.5431V49.8669L56.1373 49.7H54.7207L54.1157 49.0953V46.9321L54.7207 46.3274H57.0587L57.6713 46.9397V48.109L56.3396 48.1095Z" fill="#070093"/>
<path d="M57.2376 54.3607L51.1981 54.6783V54.0417L57.2376 54.3607ZM6.48049 54.6783V54.0417L0.440918 54.3593L6.48049 54.6783Z" fill="#070093"/>
<path d="M14.2534 50.9375H14.6384V51.6691H13.3735L13.8235 49.1H14.6284L14.2534 50.9375ZM19.135 50.9375H17.7818V49.4735H18.6812V49.1H16.9072V50.9375H16.5732V51.6691H20.0086V50.3409H19.135V50.9375ZM11.4917 49.1L11.0418 51.6691H11.6959L12.1917 49.2426L12.6874 51.6691H13.3654L12.9155 49.1H11.4917ZM9.75496 49.1L10.13 50.9375H9.74446V51.6691H11.0327L10.5828 49.1H9.75496ZM28.8518 50.9294H28.5178V51.661H30.0613V50.9294H29.7273V49.4658H30.6263V49.1H28.8523L28.8518 50.9294ZM0.561045 50.9375H0.227051V51.6691H1.77058V50.9375H1.43659V49.4735H3.18481L3.55841 49.1H0.561045V50.9375ZM6.98328 50.6438L6.62972 50.9299H5.97557L5.62201 50.6438V49.1H4.75506V51.1893L5.22695 51.661H7.37835L7.85834 51.1803V49.0991H6.9828L6.98328 50.6438ZM24.6368 49.5111L24.2398 49.1144L24.2517 49.1024H21.4366V50.9399H21.1027V51.6715H22.3117V49.4777H23.4149L23.7684 49.7639V51.6715H24.9779V50.9399H24.644L24.6368 49.5111ZM34.2654 49.1024H33.3874V50.9399H33.0535V51.6715H34.597V50.9399H34.263L34.2654 49.1024ZM50.2394 49.1024L50.6134 49.4758H52.0157L52.3698 49.762V50.6547L52.0157 50.9409H51.3621L51.0085 50.6547V50.3438H50.1334V51.1922L50.6134 51.672H52.7649L53.2367 51.2003V49.2245L53.1151 49.1029L50.2394 49.1024ZM57.3167 49.1024H54.4386L54.8127 49.4758H56.2155L56.569 49.762V50.6547L56.2155 50.9409H55.5618L55.2078 50.6547V50.3438H54.3327V51.1922L54.8127 51.672H56.9646L57.4365 51.2003V49.2245L57.3167 49.1024ZM48.1758 50.9399H46.8226V49.4758H47.722V49.1024H45.9475V50.9399H45.6136V51.6715H49.0489V50.3409H48.1739L48.1758 50.9399ZM38.0605 49.1024H37.1854V50.9399H36.8514V51.6715H38.395V50.9399H38.061L38.0605 49.1024ZM44.1802 49.1024H43.3052V50.0047L42.9273 49.1024H42.1586L43.2293 51.6715H44.5147V50.9399H44.1807L44.1802 49.1024ZM40.9834 50.9399H40.6494V51.6715H41.859V49.1024H40.9839L40.9834 50.9399Z" fill="#CCCCCC"/>
<path d="M1.5387 11.5859C1.43659 12.4706 1.49099 13.2656 1.56399 14.0505C1.35947 13.5186 1.18426 12.9759 1.03914 12.4248C0.953256 13.9685 1.07827 15.413 1.25099 16.8356C1.10164 16.3487 0.970433 15.8408 0.857829 15.3062L0.822998 12.1062C1.50716 11.0234 2.31497 10.0238 3.23014 9.12754L3.29981 9.75848L1.5387 11.5859ZM44.6717 2.6284C44.8845 2.66416 45.0415 4.55077 45.1488 5.71487C45.3397 4.16066 45.3731 0.971656 45.1402 0.920628C44.7767 0.84051 42.1057 6.09734 41.2955 9.95496L41.6137 10.0408C42.4492 6.63194 44.3554 2.57498 44.6717 2.6284ZM12.9995 2.6284C13.3158 2.57498 15.222 6.63194 16.057 10.0408L16.3752 9.95496C15.5641 6.09734 12.8921 0.84051 12.53 0.920628C12.2976 0.971656 12.3286 4.16066 12.5219 5.71487C12.6302 4.55077 12.7862 2.66416 12.9995 2.6284ZM43.5915 10.3541L42.9588 10.5363C43.362 11.513 43.2995 12.5684 43.048 13.6557C43.5523 12.5459 43.6793 11.4476 43.5915 10.3579V10.3541ZM24.3715 19.8701C23.9025 17.1852 22.9401 16.4307 22.7268 14.3858C22.2077 16.1599 22.2673 18.6206 22.7488 19.9965C23.1386 21.1096 24.6573 22.5374 26.6818 22.9614C25.8024 22.5512 23.9015 21.4567 23.3395 20.2907C23.141 19.8787 22.9191 18.5696 22.9344 17.4251C23.5127 18.2344 23.9631 19.0513 24.3715 19.8701ZM24.7857 34.2414C24.6549 35.4537 24.8701 36.6373 25.5529 37.7828C25.1807 35.4503 25.3721 33.0315 26.0968 30.5311C25.3945 31.7897 24.9169 33.0296 24.7857 34.2414ZM34.2067 38.5125C34.6461 37.7933 35.0078 36.9134 35.2745 35.8366C35.2849 34.1452 35.1022 32.4582 34.7301 30.8082C34.6647 33.4397 34.502 36.015 34.2067 38.5125ZM26.8001 27.6616L26.6956 26.9539C25.4002 29.6885 24.2145 31.1459 24.1191 33.2967C24.6883 31.1411 25.6741 29.9393 26.8001 27.6616ZM54.4425 9.1304L54.3733 9.75848L56.1325 11.5859C56.2346 12.4706 56.1802 13.2656 56.1072 14.0505C56.3115 13.5185 56.4867 12.9758 56.632 12.4248C56.7174 13.9685 56.5924 15.413 56.4197 16.8356C56.5676 16.354 56.6974 15.8518 56.8091 15.3239L56.8444 12.1062C56.1613 11.025 55.3553 10.0264 54.4425 9.1304ZM30.9827 19.8744C30.9703 19.5043 30.7508 18.0684 30.3887 17.1947C29.9406 17.9339 30.4536 20.2469 30.3634 23.0458C30.8157 21.9589 30.9927 20.2063 30.9827 19.8744ZM29.9306 35.0755C29.8757 37.9335 29.8853 39.1591 29.8142 41.009C30.2849 41.1248 30.7671 41.1874 31.2518 41.1955C31.958 37.2344 31.8864 35.1351 31.6574 29.7862C31.1855 31.6413 30.653 33.4426 29.9297 35.0755H29.9306ZM32.2562 26.6201C32.5797 28.3007 33.25 31.8979 33.3655 34.1837C33.8212 29.8282 33.5826 27.8042 33.0468 23.5842C32.7753 24.909 32.6446 25.3091 32.2562 26.6201ZM33.4275 9.20384C33.0062 9.03979 32.7118 8.664 32.2347 8.60725C31.9522 8.57339 31.6493 8.63348 31.3759 8.70263C31.1597 8.75747 30.9312 8.83902 30.7131 8.74364C30.3042 8.5648 30.0556 8.1108 29.6071 8.01113C29.1328 7.90478 28.7292 8.30633 28.2778 8.35545C27.8264 8.40457 27.4414 8.0984 27.0225 7.98967C26.584 7.83086 26.1565 7.88189 25.738 8.11652C25.8838 8.66746 25.9058 9.24382 25.8024 9.80426C25.8234 10.1928 25.7946 10.5824 25.7166 10.9636V10.9774C25.693 11.1208 25.6647 11.2725 25.6316 11.4324L25.0185 15.3887L24.768 13.4988L23.7369 12.9513C23.7369 12.9513 24.4049 15.4789 25.0619 16.3234C25.7189 17.168 27.8713 18.4695 28.0226 19.5186C28.5426 23.123 26.51 29.8759 28.2611 33.0406C27.5616 27.8009 28.9997 25.3749 28.8666 19.1405C28.8666 19.1405 26.2118 16.6759 25.7886 15.6906C25.5023 15.0229 26.0663 11.357 26.3511 9.95877C26.4098 11.8292 26.9404 13.1506 27.753 14.0525L28.3446 9.24152C28.5746 10.7199 28.7516 11.193 29.1557 12.0452C29.4897 12.751 29.108 13.5431 30.4163 15.6124C30.3505 12.4935 31.0128 11.9837 30.7384 9.25964C31.4197 11.1753 31.8511 13.6871 31.9837 15.0778L33.1169 13.3133C33.7677 13.5202 35.4072 11.5802 35.0732 9.93207C36.0947 11.4672 34.9448 17.4155 33.5249 19.0088C33.7983 19.5248 33.6003 21.215 33.2185 22.1606C33.2185 22.1606 34.5855 20.5626 34.5655 19.8715C34.5455 19.1805 34.4171 18.2906 34.4171 18.2906C34.4171 18.2906 34.7893 17.9392 35.0679 17.0765C35.5861 15.4688 36.0375 13.66 36.1782 12.1225C35.9511 10.9698 35.5737 9.85147 34.7797 8.95729C34.3703 9.17475 33.8932 9.38602 33.4275 9.2048V9.20384ZM23.5227 37.3312C23.9459 38.1019 24.477 38.6579 25.0395 39.1534C24.2155 37.9497 23.5604 36.168 23.2216 34.3096C23.1286 35.2276 23.213 36.2277 23.5227 37.3312ZM22.9239 22.0758C23.6895 22.7678 24.5381 23.3622 25.4503 23.845C24.2184 22.8261 23.2164 21.7254 22.4444 20.543C20.7291 24.7955 22.7889 28.448 23.432 30.7486C23.1364 30.3661 22.8049 30.0127 22.442 29.6932C21.8818 31.7649 22.066 33.5136 22.63 35.0974C22.8008 33.4898 23.2059 31.9675 24.0819 30.6146C22.7378 27.7041 21.9844 24.6448 22.9239 22.0758ZM16.9363 14.1254C17.4407 15.972 17.7532 22.0686 17.4435 22.1521C17.235 22.2088 15.5235 18.9297 14.9381 17.9172C15.4124 19.4094 17.6606 23.5317 17.893 23.4807C18.257 23.4011 18.0108 17.1947 17.2612 14.0701L16.9363 14.1254ZM28.0058 39.5884C28.0936 38.8401 28.3079 38.1686 28.661 37.5816C27.8127 36.3697 27.183 35.019 26.8001 33.5904C26.8238 35.6484 27.2323 37.6838 28.0044 39.5917L28.0058 39.5884ZM24.9598 10.6107C21.6753 10.9226 18.4279 11.5453 15.2611 12.4706C15.25 12.6021 15.2636 12.7346 15.3012 12.8612C18.4366 11.9668 21.6465 11.3573 24.8916 11.0399C24.9217 10.8981 24.9445 10.7548 24.9598 10.6107ZM10.7641 1.5549L4.79228 3.61366C4.35857 5.02766 4.17964 6.42735 4.08087 7.82561C4.27246 10.9177 4.82737 13.9766 5.73415 16.9391C5.24938 14.433 4.83189 11.8363 4.67539 8.88242C5.03801 11.1782 5.5619 13.536 6.78003 16.1613C8.65297 15.8289 10.5002 15.3653 12.3081 14.774C13.1302 17.1356 14.1465 19.4199 15.4863 21.5755C14.3863 19.3602 13.5157 17.0384 12.8878 14.6462C11.4956 11.7157 10.3705 5.72155 10.7641 1.5549ZM46.9037 1.5549C47.2988 5.71344 46.1766 11.6932 44.7876 14.629C44.1594 17.0271 43.2871 19.3546 42.1844 21.575C43.5242 19.4194 44.541 17.1351 45.3631 14.7735C47.1708 15.3648 49.0179 15.8284 50.8907 16.1608C52.1088 13.5379 52.6327 11.1777 52.9958 8.88194C52.8393 11.8344 52.4232 14.4325 51.9375 16.9386C52.8416 13.9835 53.3956 10.9326 53.5884 7.84851C53.4901 6.44405 53.3116 5.03482 52.8755 3.61366L46.9037 1.5549ZM14.0797 10.3579C13.9924 11.45 14.1188 12.5483 14.6232 13.6581C14.3717 12.5707 14.3092 11.5154 14.7124 10.5387L14.0797 10.3579ZM40.2267 22.1559C39.9175 22.0724 40.2296 15.9758 40.7344 14.1292L40.4094 14.0739C39.6594 17.1985 39.4137 23.4049 39.7777 23.4845C40.0106 23.5355 42.2588 19.4132 42.7326 17.921C42.1476 18.9311 40.4362 22.2102 40.2272 22.1535L40.2267 22.1559ZM42.4096 12.4715C40.8141 12.0074 39.188 11.6163 37.5314 11.2984C37.5314 11.4351 37.526 11.5742 37.5151 11.7157C39.1374 12.0218 40.7555 12.4033 42.3695 12.8602C42.4071 12.7335 42.4208 12.6009 42.4101 12.4692L42.4096 12.4715Z" fill="#070093"/>
<path d="M56.8116 15.3239L56.8469 12.1062C56.1631 11.0248 55.3563 10.0262 54.4426 9.1304L54.5084 8.53332C55.5105 9.59742 56.4275 10.7385 57.251 11.946C57.188 13.0812 57.0411 14.2103 56.8116 15.3239ZM0.42041 11.946C0.483049 13.0752 0.628649 14.1983 0.856035 15.3062L0.821203 12.1062C1.50537 11.0234 2.31317 10.0238 3.22835 9.12753L3.16298 8.53332C2.16103 9.59755 1.24403 10.7386 0.42041 11.946ZM46.1476 0.500476C46.3742 5.54556 45.9415 10.2654 44.7878 14.6295C46.1767 11.6937 47.2989 5.71391 46.9039 1.55537L52.8757 3.61414C53.3118 5.03576 53.4902 6.44452 53.5885 7.84898C53.6921 6.19558 53.6969 4.53749 53.6028 2.88353C51.2734 1.85216 48.7884 1.05765 46.1476 0.5V0.500476ZM37.5014 10.7347C39.1798 11.0521 40.8401 11.4589 42.4751 11.9531C42.5157 11.7537 42.544 11.5519 42.56 11.3489C40.8741 10.8908 39.1564 10.5093 37.407 10.2044C37.4491 10.3791 37.4806 10.5562 37.5014 10.7347ZM15.1114 11.3489C15.1276 11.5518 15.156 11.7536 15.1963 11.9531C18.3873 10.994 21.6671 10.3594 24.9857 10.0589C24.9828 9.89945 24.9713 9.74025 24.9513 9.58202C21.6268 9.88845 18.3347 10.4796 15.1114 11.3489ZM11.5233 0.5C8.88478 1.06051 6.39987 1.85534 4.06858 2.88448C3.97509 4.5308 3.97923 6.18121 4.08099 7.82704C4.17976 6.42973 4.35868 5.02909 4.7924 3.61509L10.7642 1.55633C10.3682 5.72297 11.4957 11.7171 12.8879 14.6471C11.7314 10.2769 11.2967 5.55129 11.5233 0.5ZM35.2245 8.68402L35.2183 8.67687C34.976 8.36545 34.8104 8.50805 34.3013 8.48611C33.7922 8.46417 33.5503 7.84707 33.2611 7.77982C32.972 7.71258 32.481 7.83419 31.7343 8.04164C30.9876 8.24909 30.7419 7.66775 30.322 7.40928C29.9021 7.1508 28.8486 7.34012 28.8486 7.34012C27.5126 8.12319 27.1018 7.2209 27.1018 7.2209C25.4795 7.13887 24.8989 8.00444 24.7161 8.42506L24.8407 8.41457C25.0659 8.41124 25.6451 8.50423 25.7816 9.50571C25.794 9.60348 25.8021 9.70267 25.8078 9.80377C25.91 9.24324 25.8869 8.66706 25.7401 8.11651C26.1585 7.88188 26.586 7.83038 27.0245 7.98966C27.4434 8.09839 27.828 8.40504 28.2798 8.35544C28.7317 8.30584 29.1349 7.90477 29.6091 8.01112C30.0576 8.11079 30.3062 8.5648 30.7151 8.74363C30.9332 8.83901 31.1617 8.75746 31.3779 8.70262C31.6513 8.63347 31.9543 8.57338 32.2367 8.60724C32.7139 8.66399 33.0063 9.03978 33.4296 9.20384C33.8957 9.38506 34.3714 9.17379 34.7837 8.95633C35.5776 9.85051 35.955 10.9688 36.1821 12.1215C36.3324 10.4533 36.1182 9.10703 35.2245 8.68402Z" fill="#CCCCCC"/>
</g>
<defs>
<clipPath id="clip0_5_1562">
<rect width="57.6713" height="55" fill="white" transform="translate(0 0.5)"/>
</clipPath>
</defs>
</svg>
