<svg width="41" height="40" viewBox="0 0 41 40" fill="none" xmlns="http://www.w3.org/2000/svg">
<rect x="1.16675" y="0.5" width="39" height="39" rx="19.5" stroke="#3F4553"/>
<mask id="mask0_1_565" style="mask-type:luminance" maskUnits="userSpaceOnUse" x="13" y="12" width="16" height="16">
<path d="M28.2857 12.5H13.0476V27.5H28.2857V12.5Z" fill="white"/>
</mask>
<g mask="url(#mask0_1_565)">
<path d="M14.6501 14.7153C14.7041 14.7152 14.7582 14.7151 14.8123 14.7149C14.9603 14.7145 15.1084 14.7147 15.2564 14.715C15.4163 14.7152 15.5762 14.7149 15.736 14.7146C16.049 14.7142 16.362 14.7143 16.675 14.7146C16.9294 14.7148 17.1838 14.7148 17.4382 14.7147C17.4744 14.7147 17.5106 14.7147 17.5479 14.7147C17.6215 14.7146 17.6951 14.7146 17.7687 14.7146C18.4585 14.7143 19.1483 14.7146 19.8381 14.7151C20.4298 14.7155 21.0216 14.7154 21.6134 14.715C22.3008 14.7145 22.9881 14.7144 23.6754 14.7146C23.7488 14.7147 23.8221 14.7147 23.8954 14.7147C23.9314 14.7147 23.9675 14.7147 24.0046 14.7148C24.2587 14.7148 24.5127 14.7147 24.7668 14.7145C25.0765 14.7143 25.3861 14.7143 25.6958 14.7148C25.8538 14.715 26.0117 14.7151 26.1697 14.7148C26.3143 14.7146 26.459 14.7147 26.6036 14.7152C26.6559 14.7153 26.7082 14.7152 26.7604 14.715C27.0218 14.714 27.2659 14.7146 27.512 14.8144C27.4679 14.9054 27.4235 14.9667 27.3498 15.0373C27.3193 15.0669 27.3193 15.0669 27.2881 15.097C27.2562 15.1275 27.2562 15.1275 27.2237 15.1586C27.1819 15.1987 27.1403 15.2388 27.0987 15.279C27.071 15.3055 27.071 15.3055 27.0427 15.3325C26.9873 15.3891 26.9353 15.4468 26.8833 15.5064C26.7684 15.6359 26.6472 15.7579 26.5238 15.8794C26.5 15.9028 26.4762 15.9263 26.4518 15.9505C26.3728 16.0287 26.2935 16.1067 26.2144 16.1848C26.1575 16.241 26.1006 16.2972 26.0436 16.3535C25.8734 16.5216 25.703 16.6896 25.5326 16.8576C25.4522 16.9369 25.3719 17.0161 25.2916 17.0953C25.0244 17.3588 24.7573 17.6222 24.49 17.8855C24.4209 17.9536 24.3517 18.0218 24.2825 18.09C24.2567 18.1154 24.2567 18.1154 24.2304 18.1413C23.9514 18.4162 23.6726 18.6914 23.3939 18.9666C23.1075 19.2495 22.8209 19.5322 22.5341 19.8146C22.3732 19.9731 22.2123 20.1317 22.0517 20.2905C21.9151 20.4257 21.7783 20.5606 21.6412 20.6952C21.5713 20.7639 21.5015 20.8327 21.4319 20.9017C21.3565 20.9765 21.2807 21.0509 21.2048 21.1253C21.1828 21.1471 21.161 21.169 21.1383 21.1916C20.9738 21.3515 20.8498 21.4104 20.6138 21.4168C20.3815 21.3794 20.248 21.2449 20.0886 21.0857C20.0642 21.0618 20.0397 21.0378 20.0145 21.0131C19.947 20.9468 19.8797 20.8803 19.8125 20.8136C19.7399 20.7417 19.6669 20.6702 19.594 20.5985C19.4513 20.4582 19.3089 20.3176 19.1666 20.1769C19.0008 20.0129 18.8346 19.8493 18.6684 19.6856C18.3718 19.3935 18.0755 19.1011 17.7793 18.8086C17.4921 18.525 17.2049 18.2416 16.9174 17.9584C16.8997 17.9409 16.882 17.9235 16.8637 17.9055C16.7926 17.8355 16.7215 17.7654 16.6503 17.6953C16.376 17.425 16.1018 17.1547 15.8277 16.8843C15.7449 16.8027 15.6622 16.7211 15.5795 16.6396C15.4055 16.468 15.2316 16.2965 15.0578 16.1248C14.9859 16.0538 14.9141 15.9829 14.8422 15.912C14.764 15.835 14.686 15.7579 14.608 15.6807C14.5742 15.6475 14.5742 15.6475 14.5397 15.6136C14.42 15.4949 14.3051 15.3737 14.1947 15.2466C14.1111 15.1528 14.0193 15.0674 13.9277 14.9812C13.8913 14.9462 13.8563 14.9097 13.8215 14.873C13.8215 14.8536 13.8215 14.8343 13.8215 14.8144C14.0914 14.7049 14.3639 14.7141 14.6501 14.7153Z" fill="#242424"/>
<path d="M18.3751 20.615C18.4749 20.6616 18.5397 20.7118 18.6172 20.79C18.6412 20.8139 18.6651 20.8379 18.6898 20.8626C18.7284 20.9016 18.7284 20.9016 18.7677 20.9412C18.8087 20.9821 18.8496 21.023 18.8906 21.0639C18.9913 21.1644 19.0917 21.2652 19.1919 21.3661C19.2482 21.4227 19.3046 21.4791 19.3611 21.5355C19.4142 21.5883 19.467 21.6414 19.5195 21.6947C19.8443 22.017 20.1887 22.2199 20.6556 22.2336C21.2814 22.2261 21.6513 21.8488 22.0676 21.4361C22.0917 21.4124 22.1157 21.3888 22.1405 21.3643C22.2161 21.2898 22.2915 21.2151 22.3669 21.1405C22.4186 21.0895 22.4703 21.0384 22.522 20.9874C22.6477 20.8634 22.7734 20.7392 22.8989 20.615C23.0155 20.6616 23.0942 20.7405 23.1812 20.827C23.1972 20.8428 23.2134 20.8586 23.23 20.8749C23.284 20.9278 23.3377 20.981 23.3915 21.0342C23.4302 21.0723 23.4689 21.1103 23.5076 21.1482C23.6127 21.2516 23.7176 21.3551 23.8225 21.4587C23.9323 21.567 24.0423 21.6753 24.1524 21.7836C24.3373 21.9656 24.522 22.1477 24.7066 22.3299C24.9198 22.5402 25.1332 22.7504 25.3466 22.9605C25.5741 23.1843 25.8014 23.4084 26.0288 23.6324C26.0941 23.6967 26.1594 23.7611 26.2248 23.8254C26.3279 23.9269 26.4308 24.0285 26.5338 24.13C26.5714 24.1672 26.609 24.2043 26.6468 24.2415C26.9922 24.5814 26.9922 24.5814 27.1436 24.7578C27.225 24.8504 27.3159 24.9338 27.4058 25.0185C27.4423 25.0535 27.4773 25.09 27.512 25.1267C27.512 25.146 27.512 25.1654 27.512 25.1853C27.2421 25.2948 26.9696 25.2855 26.6835 25.2843C26.6294 25.2845 26.5754 25.2846 26.5213 25.2848C26.3732 25.2852 26.2251 25.2849 26.0771 25.2847C25.9172 25.2845 25.7574 25.2848 25.5975 25.285C25.2845 25.2855 24.9715 25.2853 24.6585 25.2851C24.4042 25.2849 24.1498 25.2849 23.8954 25.2849C23.8591 25.2849 23.8229 25.285 23.7856 25.285C23.7121 25.285 23.6385 25.2851 23.5649 25.2851C22.8751 25.2853 22.1853 25.2851 21.4954 25.2846C20.9037 25.2842 20.3119 25.2843 19.7201 25.2846C19.0328 25.2852 18.3454 25.2853 17.6581 25.285C17.5848 25.285 17.5115 25.285 17.4382 25.2849C17.4021 25.2849 17.3661 25.2849 17.3289 25.2849C17.0748 25.2849 16.8208 25.2849 16.5667 25.2852C16.2571 25.2855 15.9474 25.2854 15.6378 25.2849C15.4798 25.2846 15.3218 25.2846 15.1639 25.2849C15.0192 25.2851 14.8746 25.285 14.7299 25.2845C14.6776 25.2844 14.6254 25.2845 14.5731 25.2847C14.3117 25.2857 14.0676 25.2851 13.8215 25.1853C13.8629 25.1006 13.9019 25.0407 13.9707 24.9752C13.9884 24.9582 14.006 24.9411 14.0242 24.9234C14.0427 24.906 14.0611 24.8884 14.0801 24.8703C14.1859 24.7692 14.2899 24.6686 14.3851 24.5575C14.5428 24.3791 14.7148 24.2142 14.8849 24.0474C14.923 24.0098 14.9612 23.9723 14.9993 23.9347C15.1023 23.8333 15.2054 23.7321 15.3085 23.6307C15.4164 23.5247 15.5242 23.4186 15.6321 23.3124C15.8361 23.1117 16.0402 22.911 16.2443 22.7104C16.4767 22.4819 16.7091 22.2534 16.9415 22.0248C17.4193 21.5547 17.8972 21.0849 18.3751 20.615Z" fill="#242424"/>
<path d="M13.166 15.4587C13.2905 15.515 13.3757 15.5986 13.4711 15.6934C13.4897 15.7117 13.5082 15.7299 13.5274 15.7487C13.5897 15.8099 13.6517 15.8713 13.7138 15.9328C13.7584 15.9767 13.803 16.0205 13.8476 16.0644C13.9687 16.1836 14.0897 16.3031 14.2106 16.4225C14.337 16.5472 14.4635 16.6718 14.59 16.7964C14.8296 17.0325 15.069 17.2687 15.3084 17.5049C15.581 17.7738 15.8536 18.0426 16.1263 18.3113C16.6874 18.8642 17.2482 19.4172 17.8088 19.9705C17.7597 20.0951 17.6653 20.1786 17.5708 20.2708C17.5523 20.2891 17.5339 20.3073 17.5148 20.3262C17.4528 20.3875 17.3905 20.4486 17.3282 20.5098C17.2837 20.5536 17.2393 20.5975 17.1948 20.6414C17.0739 20.7606 16.9529 20.8797 16.8318 20.9988C16.7052 21.1232 16.5788 21.2477 16.4524 21.3723C16.2402 21.5813 16.0278 21.7902 15.8153 21.999C15.5694 22.2408 15.3236 22.4829 15.078 22.725C14.8673 22.9326 14.6566 23.1401 14.4457 23.3475C14.3197 23.4715 14.1937 23.5956 14.0678 23.7197C13.9495 23.8362 13.831 23.9527 13.7125 24.0691C13.6689 24.1119 13.6253 24.1548 13.5818 24.1978C13.5227 24.2562 13.4634 24.3144 13.404 24.3725C13.3866 24.3897 13.3692 24.407 13.3513 24.4248C13.2323 24.5408 13.2323 24.5408 13.166 24.5408C13.0641 24.3093 13.0297 24.1126 13.0318 23.8616C13.0316 23.8271 13.0314 23.7926 13.0313 23.757C13.0309 23.6622 13.031 23.5674 13.0314 23.4725C13.0316 23.3698 13.0312 23.2672 13.0309 23.1645C13.0304 22.9638 13.0305 22.7631 13.0308 22.5624C13.0311 22.3992 13.0311 22.2359 13.031 22.0727C13.031 22.0494 13.031 22.0261 13.0309 22.0022C13.0309 21.9549 13.0309 21.9075 13.0308 21.8602C13.0305 21.4173 13.0309 20.9743 13.0315 20.5314C13.0321 20.1517 13.032 19.7721 13.0314 19.3925C13.0308 18.9511 13.0305 18.5096 13.0309 18.0682C13.0309 18.0211 13.031 17.9739 13.031 17.9268C13.031 17.9036 13.031 17.8805 13.0311 17.8566C13.0312 17.6937 13.031 17.5307 13.0307 17.3678C13.0304 17.1691 13.0305 16.9704 13.0311 16.7717C13.0314 16.6705 13.0315 16.5692 13.0311 16.4679C13.0308 16.3579 13.0312 16.2479 13.0318 16.1379C13.0316 16.1062 13.0313 16.0746 13.031 16.0419C13.0332 15.8275 13.0795 15.6553 13.166 15.4587Z" fill="#242424"/>
<path d="M28.1667 15.4587C28.2686 15.6902 28.3031 15.8869 28.3009 16.1379C28.3011 16.1724 28.3013 16.2069 28.3015 16.2425C28.3019 16.3373 28.3018 16.4322 28.3014 16.527C28.3011 16.6297 28.3015 16.7323 28.3018 16.835C28.3024 17.0357 28.3023 17.2364 28.3019 17.4372C28.3016 17.6004 28.3016 17.7636 28.3018 17.9268C28.3018 17.9501 28.3018 17.9734 28.3018 17.9974C28.3018 18.0447 28.3018 18.092 28.3019 18.1393C28.3022 18.5822 28.3018 19.0252 28.3012 19.4682C28.3007 19.8478 28.3008 20.2274 28.3013 20.607C28.302 21.0485 28.3022 21.4899 28.3018 21.9313C28.3018 21.9785 28.3018 22.0256 28.3018 22.0727C28.3017 22.1075 28.3017 22.1075 28.3017 22.143C28.3016 22.3059 28.3018 22.4688 28.3021 22.6317C28.3024 22.8304 28.3023 23.0291 28.3016 23.2278C28.3013 23.3291 28.3012 23.4303 28.3016 23.5316C28.3019 23.6416 28.3015 23.7516 28.3009 23.8616C28.3012 23.8933 28.3014 23.925 28.3018 23.9576C28.2995 24.172 28.2533 24.3443 28.1667 24.5408C28.0422 24.4845 27.9571 24.401 27.8617 24.3061C27.8431 24.2878 27.8245 24.2696 27.8054 24.2508C27.7431 24.1896 27.681 24.1282 27.6189 24.0667C27.5744 24.0228 27.5298 23.979 27.4851 23.9351C27.364 23.8159 27.2431 23.6964 27.1222 23.577C26.9958 23.4522 26.8692 23.3277 26.7427 23.2031C26.5031 22.9671 26.2637 22.7309 26.0243 22.4946C25.7518 22.2257 25.4791 21.957 25.2064 21.6882C24.6454 21.1353 24.0845 20.5823 23.5239 20.0291C23.5955 19.8967 23.6872 19.8015 23.7941 19.697C23.8125 19.6788 23.8309 19.6606 23.8499 19.6419C23.9114 19.5811 23.9731 19.5205 24.0349 19.4598C24.0791 19.4162 24.1233 19.3726 24.1675 19.329C24.2874 19.2107 24.4076 19.0925 24.5277 18.9744C24.6534 18.8509 24.7789 18.7273 24.9043 18.6036C25.115 18.3961 25.3258 18.1888 25.5367 17.9815C25.7808 17.7415 26.0247 17.5013 26.2685 17.261C26.4777 17.0549 26.6869 16.8489 26.8962 16.6429C27.0213 16.5199 27.1464 16.3968 27.2714 16.2735C27.3888 16.1578 27.5063 16.0422 27.624 15.9268C27.6672 15.8843 27.7104 15.8417 27.7536 15.7991C27.8123 15.7411 27.8711 15.6834 27.9301 15.6257C27.9473 15.6086 27.9645 15.5915 27.9824 15.5738C28.1005 15.4587 28.1005 15.4587 28.1667 15.4587Z" fill="#242424"/>
</g>
</svg>
