<svg width="41" height="40" viewBox="0 0 41 40" fill="none" xmlns="http://www.w3.org/2000/svg">
<rect x="1.16675" y="0.5" width="39" height="39" rx="19.5" stroke="#3F4553"/>
<g clip-path="url(#clip0_1_560)">
<path d="M15.7718 12.7038L14.4469 14.0289C13.3624 15.1135 13.0644 16.7572 13.699 18.1536C15.5396 22.2034 18.7849 25.4491 22.8342 27.2899C24.2304 27.9247 25.8739 27.6266 26.9584 26.542L28.2834 25.2169C28.7152 24.785 28.7152 24.0847 28.2834 23.6528L26.501 21.8703C26.1644 21.5336 25.6502 21.4502 25.2245 21.6631L24.2354 22.1577C23.3839 22.5835 22.3555 22.4166 21.6823 21.7433L19.2449 19.3057C18.5718 18.6324 18.4049 17.6039 18.8306 16.7523L19.3252 15.763C19.5381 15.3372 19.4546 14.823 19.1181 14.4863L17.3358 12.7038C16.9039 12.2719 16.2037 12.2719 15.7718 12.7038Z" fill="#242424"/>
</g>
<defs>
<clipPath id="clip0_1_560">
<rect width="16" height="15.24" fill="white" transform="translate(12.6667 12.3799)"/>
</clipPath>
</defs>
</svg>
