<svg width="32" height="32" viewBox="0 0 32 32" fill="none" xmlns="http://www.w3.org/2000/svg">
<path d="M27.7871 26.7761L21.9548 20.9437C23.5193 19.145 24.4665 16.7982 24.4665 14.2333C24.4665 8.58714 19.8741 4 14.2333 4C8.58714 4 4 8.59246 4 14.2333C4 19.8741 8.59246 24.4665 14.2333 24.4665C16.7982 24.4665 19.145 23.5193 20.9437 21.9548L26.7761 27.7871C26.9144 27.9255 27.1007 28 27.2816 28C27.4625 28 27.6488 27.9308 27.7871 27.7871C28.0639 27.5104 28.0639 27.0528 27.7871 26.7761ZM5.43149 14.2333C5.43149 9.38004 9.38004 5.43681 14.2279 5.43681C19.0812 5.43681 23.0244 9.38537 23.0244 14.2333C23.0244 19.0812 19.0812 23.035 14.2279 23.035C9.38004 23.035 5.43149 19.0865 5.43149 14.2333Z" fill="#A4A4A4"/>
</svg>
